<svg width="24" height="24" viewBox="0 0 24 24" fill="none" xmlns="http://www.w3.org/2000/svg">
<path fill-rule="evenodd" clip-rule="evenodd" d="M7.50043 5.018C7.50043 5.599 7.29243 6.082 6.87643 6.468C6.46043 6.853 5.91243 7.045 5.23243 7.045H5.20643C4.55643 7.045 4.02643 6.851 3.61643 6.463C3.41708 6.27966 3.25904 6.05598 3.15283 5.80683C3.04662 5.55769 2.99467 5.28878 3.00043 5.018C3.00043 4.438 3.21043 3.956 3.62843 3.574C4.04843 3.19 4.59443 3 5.26843 3C5.93043 3 6.46443 3.191 6.87243 3.574C7.27943 3.956 7.48843 4.438 7.50043 5.018ZM3.37843 8.882H7.12243V20.293H3.37843V8.883V8.882ZM13.1254 13.669V20.293H9.37243V11.461C9.34507 10.6015 9.32474 9.74182 9.31143 8.882H13.0024L13.1254 10.461C13.5013 9.89046 13.9959 9.4078 14.5754 9.046C15.1545 8.69226 15.8219 8.50988 16.5004 8.52C17.8484 8.52 18.9354 8.973 19.7604 9.879C20.5874 10.784 21.0004 12.048 21.0004 13.669V20.293H17.2474V14.04C17.2474 13.166 17.0584 12.518 16.6804 12.095C16.3024 11.673 15.8124 11.461 15.2084 11.461C14.6104 11.461 14.1144 11.652 13.7184 12.035C13.3234 12.417 13.1254 12.962 13.1254 13.669V13.669Z" fill="currentcolor"/>
</svg>
