<svg width="24" height="24" viewBox="0 0 24 24" fill="none" xmlns="http://www.w3.org/2000/svg">
<path d="M11.9988 2.27344C7.72974 2.27344 4.25391 5.74927 4.25391 10.0183C4.25391 12.3505 5.29702 14.7305 6.56416 16.7689C7.83131 18.8074 9.32512 20.4934 10.4036 21.4142C11.3184 22.1953 12.6777 22.1953 13.5926 21.4142C14.671 20.4935 16.1662 18.8075 17.4334 16.7689C18.7006 14.7304 19.7436 12.3505 19.7436 10.0183C19.7436 5.74927 16.2678 2.27344 11.9988 2.27344ZM11.9988 5.79383C14.3235 5.79383 16.2232 7.69353 16.2232 10.0183C16.2232 12.3431 14.3235 14.2428 11.9988 14.2428C9.674 14.2428 7.7743 12.3431 7.7743 10.0183C7.7743 7.69353 9.674 5.79383 11.9988 5.79383Z" fill="currentcolor"/>
</svg>
