<svg width="24" height="24" viewBox="0 0 24 24" fill="none" xmlns="http://www.w3.org/2000/svg">
<path d="M6.68031 4.01549C6.56275 3.99191 6.42168 3.99191 6.32763 4.03906C5.05798 4.53414 4.25857 6.34946 4.07048 7.59897C3.48268 11.654 6.68031 15.1667 9.61931 17.4771C12.2291 19.5282 17.2372 22.8995 20.1997 19.6461C20.5759 19.2453 21.0226 18.6559 20.9991 18.0665C20.9286 17.0763 20.0116 16.3691 19.3062 15.8268C18.7655 15.426 17.6369 14.318 16.9315 14.3416C16.2967 14.3651 15.897 15.0253 15.4973 15.4261L14.7919 16.1333C14.6744 16.2512 13.1696 15.261 13.005 15.1431C12.3937 14.7424 11.8059 14.2944 11.2887 13.7993C10.7714 13.3043 10.3012 12.762 9.90145 12.1962C9.78389 12.0312 8.8199 10.5931 8.91395 10.4752C8.91395 10.4752 9.73687 9.57931 9.97199 9.22568C10.4657 8.47126 10.8419 7.88187 10.2776 6.986C10.066 6.65594 9.8074 6.39662 9.52526 6.11371C9.03151 5.6422 8.53776 5.14711 7.97347 4.74632C7.66781 4.51057 7.15055 4.08621 6.68031 4.01549Z" fill="currentcolor"/>
</svg>
