<svg width="24" height="24" viewBox="0 0 24 24" fill="none" xmlns="http://www.w3.org/2000/svg">
<rect width="24" height="24" fill="none"/>
<path d="M4.46484 19.2463V20.2317C4.46484 20.5027 4.68654 20.7244 4.95755 20.7244H12.8517C12.5437 20.2737 12.2972 19.7759 12.1273 19.2461L4.46484 19.2463Z" fill="currentcolor"/>
<path d="M17.275 4.95657C17.275 4.68555 17.0557 4.46387 16.7823 4.46387H15.7969V12.1239C16.2674 11.9737 16.7627 11.8825 17.2752 11.8603L17.275 4.95657Z" fill="currentcolor"/>
<path d="M5.94015 5.4494V2.69727L2.69531 5.94211H5.44745C5.72087 5.94211 5.94015 5.72041 5.94015 5.4494Z" fill="currentcolor"/>
<path d="M11.8548 17.5217C11.8548 15.3783 13.0522 13.5083 14.8113 12.545L14.8114 2.49288C14.8114 2.22186 14.5921 2.00017 14.3187 2.00017L6.92749 2V5.44916C6.92749 6.26461 6.26483 6.92749 5.44916 6.92749H2V17.768C2 18.039 2.2217 18.2607 2.49271 18.2607H11.9069C11.8749 18.0194 11.8551 17.7729 11.8551 17.5217L11.8548 17.5217ZM8.89836 3.47838H12.8404C13.1139 3.47838 13.3332 3.69767 13.3332 3.97108C13.3332 4.2421 13.1139 4.46379 12.8404 4.46379H8.89836C8.62734 4.46379 8.40566 4.24209 8.40566 3.97108C8.40566 3.69766 8.62735 3.47838 8.89836 3.47838V3.47838ZM8.89836 5.94212H12.8404C13.1139 5.94212 13.3332 6.16141 13.3332 6.43483C13.3332 6.70585 13.1139 6.92753 12.8404 6.92753H8.89836C8.62734 6.92753 8.40566 6.70584 8.40566 6.43483C8.40566 6.1614 8.62735 5.94212 8.89836 5.94212V5.94212ZM3.47812 11.3624V8.89862C3.47812 8.62519 3.69982 8.40591 3.97083 8.40591H12.8403C13.1137 8.40591 13.333 8.6252 13.333 8.89862V11.3624C13.333 11.6334 13.1137 11.8551 12.8403 11.8551H3.97083C3.6998 11.8551 3.47812 11.6334 3.47812 11.3624V11.3624ZM9.88386 16.7826H4.21724C3.94622 16.7826 3.72454 16.5609 3.72454 16.2899C3.72454 16.0165 3.94624 15.7972 4.21724 15.7972H9.88386C10.1573 15.7972 10.3766 16.0165 10.3766 16.2899C10.3766 16.5609 10.1573 16.7826 9.88386 16.7826ZM10.8693 14.3189H4.21716C3.94613 14.3189 3.72445 14.0972 3.72445 13.8262C3.72445 13.5527 3.94615 13.3334 4.21716 13.3334H10.8693C11.1427 13.3334 11.362 13.5527 11.362 13.8262C11.362 14.0972 11.1427 14.3189 10.8693 14.3189Z" fill="currentcolor"/>
<path d="M4.46484 9.39111H12.3488V10.8694H4.46484V9.39111Z" fill="currentcolor"/>
<path d="M17.521 12.8408C14.9414 12.8408 12.8398 14.9399 12.8398 17.5219C12.8398 20.1015 14.9415 22.2031 17.521 22.2031C20.103 22.2031 22.2021 20.1014 22.2021 17.5219C22.2023 14.9399 20.103 12.8408 17.521 12.8408V12.8408ZM16.0428 15.5509C16.3162 15.5509 16.5355 15.7701 16.5355 16.0436C16.5355 16.3146 16.3162 16.5363 16.0428 16.5363C15.7718 16.5363 15.5501 16.3146 15.5501 16.0436C15.5499 15.7701 15.7718 15.5509 16.0428 15.5509ZM18.9993 19.4929C18.7282 19.4929 18.5065 19.2712 18.5065 19.0002C18.5065 18.7268 18.7282 18.5075 18.9993 18.5075C19.2727 18.5075 19.492 18.7268 19.492 19.0002C19.492 19.2713 19.2727 19.4929 18.9993 19.4929ZM19.3492 16.3911L16.3927 19.3475C16.2965 19.4436 16.1708 19.4929 16.0428 19.4929C15.9172 19.4929 15.7915 19.4436 15.6955 19.3475C15.5033 19.1554 15.5033 18.8425 15.6955 18.6503L18.6519 15.6938C18.8441 15.5017 19.157 15.5017 19.3492 15.6938C19.5413 15.886 19.5413 16.1989 19.3492 16.3911H19.3492Z" fill="currentcolor"/>
</svg>
